<?xml version="1.0" standalone="no"?>
<!DOCTYPE svg PUBLIC "-//W3C//DTD SVG 20010904//EN"
 "http://www.w3.org/TR/2001/REC-SVG-20010904/DTD/svg10.dtd">
<svg version="1.0" xmlns="http://www.w3.org/2000/svg"
 width="16.000000pt" height="16.000000pt" viewBox="0 0 16.000000 16.000000"
 preserveAspectRatio="xMidYMid meet">
<metadata>
Created by potrace 1.11, written by Peter Selinger 2001-2013
</metadata>
<g transform="translate(0.000000,16.000000) scale(0.003125,-0.003125)"
fill="#000000" stroke="none">
<path d="M0 3327 l0 -1793 53 2 c85 4 147 15 159 28 8 8 31 11 64 8 37 -3 76
3 136 21 88 27 125 36 172 41 16 2 41 16 58 35 29 30 29 33 12 46 -25 18 -7
38 48 54 69 21 91 40 84 73 -5 26 -3 28 35 34 24 4 44 14 50 25 7 14 21 19 57
19 71 0 89 8 94 39 3 23 1 27 -14 23 -23 -6 -23 7 2 38 11 14 20 29 20 33 0 5
7 16 16 24 11 12 14 26 9 50 -5 27 -1 40 19 64 24 28 31 51 28 89 -1 8 1 22 5
30 15 36 7 74 -20 91 -5 4 4 17 21 29 30 22 34 54 8 73 -8 6 -8 10 0 13 6 2 9
17 6 33 -3 22 1 32 17 41 12 6 19 15 16 20 -3 5 0 12 5 15 8 5 6 13 -6 26 -21
23 -12 47 21 55 l26 6 -23 12 c-13 6 -23 18 -23 26 0 8 -4 21 -9 28 -4 7 -6
14 -5 16 2 1 16 10 32 19 15 10 27 24 27 32 0 7 10 21 22 29 28 20 16 33 -32
38 -22 2 -35 8 -35 17 0 8 16 20 35 26 37 13 40 27 13 57 -18 20 -4 53 28 63
15 5 17 10 9 20 -6 7 -7 16 -2 19 5 3 7 19 4 36 -3 24 2 38 23 60 17 17 23 30
16 34 -6 4 -15 5 -20 1 -5 -3 -12 -1 -15 4 -4 5 -2 12 4 16 5 3 10 17 10 30 0
13 6 28 13 32 6 4 12 17 12 28 0 13 12 26 35 37 29 13 32 18 18 23 -22 9 -23
34 -3 41 12 5 13 10 4 20 -16 19 2 40 41 48 28 5 43 26 20 26 -19 0 -10 38 11
43 12 3 18 10 14 16 -3 6 1 25 9 43 9 17 16 37 16 45 0 7 11 13 25 13 25 0 25
1 9 25 -10 16 -12 25 -5 25 9 0 9 5 1 20 -9 17 -8 20 10 20 26 0 122 96 118
118 -2 11 9 23 34 35 29 15 37 25 40 50 3 29 40 66 81 80 9 3 9 8 -1 19 -17
21 3 35 23 18 12 -10 15 -10 15 0 0 7 22 34 48 60 45 44 51 47 102 47 66 0
117 19 124 47 5 17 8 18 15 7 14 -21 41 -5 41 24 0 27 9 32 28 13 17 -17 80
-18 86 -1 3 7 12 13 20 13 22 0 47 30 41 49 -4 14 4 17 56 18 39 1 64 6 72 16
9 11 26 13 75 8 37 -4 66 -3 72 3 7 7 10 5 10 -4 0 -7 3 -11 6 -7 7 7 -24 107
-37 122 -5 5 -9 17 -9 26 0 9 -16 49 -36 89 -30 62 -58 156 -41 140 3 -3 20
-41 37 -85 18 -44 43 -102 56 -130 33 -73 57 -129 58 -137 1 -4 16 -18 33 -31
18 -13 42 -35 53 -49 22 -29 66 -39 119 -27 22 5 40 4 48 -3 8 -6 39 -9 77 -6
38 3 69 1 75 -5 7 -7 15 -6 25 2 19 16 83 24 91 11 10 -16 45 -12 45 6 0 11 8
15 28 13 48 -4 57 0 69 32 7 17 21 33 32 36 11 3 22 11 25 19 3 8 12 14 19 14
8 0 40 11 71 25 93 41 109 36 152 -53 13 -26 24 -45 24 -42 0 3 -7 62 -15 130
-23 188 -45 292 -99 473 -14 48 -26 95 -26 104 0 15 2 15 14 3 28 -28 101
-317 166 -655 6 -27 15 -86 21 -130 6 -44 17 -93 25 -109 8 -16 14 -46 14 -68
0 -21 4 -38 9 -38 6 0 11 -23 13 -52 2 -30 8 -53 16 -56 7 -2 12 5 12 18 0 12
14 63 31 114 20 59 29 102 25 123 -5 36 8 52 22 27 8 -14 17 -3 52 57 24 41
65 105 92 143 26 38 48 74 48 81 0 7 8 19 18 28 9 9 33 46 52 83 19 37 36 62
38 56 5 -17 -74 -175 -134 -267 -28 -44 -74 -119 -102 -167 l-49 -88 13 -57
c8 -32 14 -75 14 -95 0 -21 4 -38 9 -38 5 0 28 17 50 38 22 20 61 53 87 72 26
19 57 45 68 56 22 22 76 41 76 26 0 -4 -19 -24 -42 -43 -24 -20 -53 -56 -65
-80 -23 -45 -31 -41 -13 5 l10 26 -28 -17 c-15 -10 -53 -42 -84 -72 l-58 -54
0 -64 0 -63 38 17 c20 10 46 24 57 33 15 11 34 14 70 10 l50 -5 -74 -25 c-56
-19 -81 -33 -105 -62 -35 -41 -45 -98 -20 -119 12 -10 24 -3 62 35 51 52 94
78 157 95 118 31 178 41 212 35 l36 -7 -27 -14 c-16 -8 -38 -12 -50 -9 -33 8
-206 -49 -254 -83 -65 -48 -68 -62 -27 -121 19 -27 35 -57 35 -66 0 -9 9 -18
20 -21 11 -3 20 -14 20 -24 0 -11 5 -19 10 -19 6 0 10 -11 10 -25 0 -17 7 -29
23 -35 12 -5 17 -9 11 -9 -17 -1 -36 -49 -22 -57 13 -8 71 52 63 66 -3 6 2 13
12 17 10 3 28 14 39 22 12 9 32 23 44 31 12 8 39 28 59 44 185 146 423 214
646 184 56 -7 99 -17 97 -23 -1 -6 -19 -8 -40 -5 -20 3 -91 5 -157 4 -95 0
-137 -5 -200 -23 -107 -31 -236 -92 -304 -143 -80 -60 -82 -62 -26 -35 71 35
137 54 240 71 50 8 136 22 193 32 75 12 106 14 114 6 12 -12 14 -11 -122 -35
-126 -22 -195 -43 -296 -92 -97 -47 -308 -184 -299 -193 11 -11 51 -9 110 5
39 10 87 14 140 11 94 -5 226 -45 233 -70 2 -9 19 -19 40 -23 21 -3 66 -15
102 -25 36 -10 78 -21 94 -25 18 -4 25 -10 19 -16 -5 -5 -31 -3 -68 6 -32 9
-63 14 -69 11 -6 -2 -1 -5 11 -5 12 -1 25 -6 28 -11 9 -14 -34 -12 -130 5
-120 22 -260 31 -251 17 4 -7 2 -12 -3 -12 -6 0 -11 5 -11 10 0 6 -17 10 -37
10 -38 -1 -170 -23 -177 -31 -3 -2 8 -18 23 -34 26 -30 131 -73 159 -67 8 2
12 -2 10 -8 -2 -6 34 -50 80 -98 79 -83 122 -142 104 -142 -4 0 -13 5 -20 12
-18 18 -15 -3 8 -50 11 -22 20 -47 20 -55 0 -8 7 -28 15 -43 17 -33 19 -54 6
-54 -5 0 -12 12 -15 27 -18 69 -82 212 -112 249 -41 51 -117 98 -144 89 -11
-4 -20 -10 -20 -15 0 -5 -3 -15 -6 -24 -3 -9 5 -24 20 -37 14 -13 26 -28 26
-35 0 -6 6 -17 14 -23 14 -11 40 -71 31 -71 -2 0 -20 25 -40 55 -21 30 -40 55
-43 55 -4 0 -16 -28 -27 -63 -19 -56 -20 -68 -8 -127 13 -64 8 -250 -6 -250
-3 0 -4 41 -2 91 4 105 -10 113 -28 17 -14 -76 -30 -118 -43 -118 -6 0 -8 10
-5 23 24 95 28 120 25 154 l-3 38 -16 -34 -15 -35 -22 24 c-13 14 -26 38 -30
54 -9 35 -29 45 -39 19 -3 -10 -9 -20 -12 -23 -4 -3 -24 -32 -46 -65 -22 -33
-46 -64 -53 -68 -14 -9 -11 -51 8 -132 5 -22 9 -62 9 -90 l-1 -50 -15 65 c-30
136 -34 155 -39 160 -11 10 -44 -43 -44 -71 0 -15 -5 -31 -10 -34 -6 -3 -10 5
-10 19 0 13 -6 26 -12 29 -10 4 -10 7 0 18 17 18 15 90 -3 113 -8 11 -15 38
-15 59 0 35 -2 38 -16 26 -9 -8 -22 -14 -28 -14 -6 0 -24 -7 -41 -16 -16 -9
-41 -15 -55 -12 -38 6 -90 -6 -90 -22 0 -7 16 -44 35 -81 38 -73 39 -74 28
-74 -13 0 -60 83 -68 117 -8 40 -22 50 -42 30 -14 -14 -14 -19 6 -52 11 -20
21 -38 21 -41 0 -10 -24 -2 -47 16 -38 30 -53 26 -53 -15 0 -37 34 -118 63
-150 31 -33 59 -75 51 -75 -9 0 -79 74 -101 107 -20 30 -37 30 -29 1 4 -13 8
-39 10 -58 2 -19 11 -73 18 -120 14 -79 14 -109 0 -96 -3 3 -9 30 -14 59 -12
80 -25 137 -32 144 -3 4 -12 -2 -19 -12 -13 -16 -14 -16 -20 -1 -4 9 -11 16
-17 16 -6 0 -4 -8 6 -17 10 -10 21 -18 25 -18 13 0 21 -13 29 -49 4 -20 4 -39
-1 -42 -5 -3 -9 4 -9 15 0 19 -26 41 -48 41 -17 0 -20 -36 -6 -70 15 -35 11
-50 -12 -50 -11 0 -13 -6 -9 -19 3 -11 1 -22 -4 -26 -13 -8 -11 -115 3 -137
14 -24 2 -32 -25 -17 -23 12 -23 12 -6 -14 20 -32 21 -37 4 -37 -25 0 -36 -21
-25 -46 8 -18 7 -26 -6 -39 -22 -22 -20 -30 9 -53 29 -23 23 -33 -16 -25 -24
4 -29 2 -29 -14 0 -10 -4 -23 -9 -28 -4 -6 -14 -32 -20 -60 -7 -27 -20 -58
-28 -67 -10 -11 -12 -18 -5 -18 7 0 12 -4 12 -10 0 -5 -6 -10 -14 -10 -24 0
-27 -17 -9 -54 19 -40 12 -56 -17 -38 -32 19 -49 5 -43 -34 4 -23 2 -34 -7
-34 -8 0 -10 -8 -6 -26 6 -22 4 -25 -13 -19 -16 5 -22 1 -27 -22 -4 -15 -16
-38 -27 -50 -17 -19 -19 -27 -9 -48 16 -35 16 -63 0 -47 -21 21 -27 13 -17
-20 7 -24 6 -29 -3 -20 -7 7 -23 12 -36 12 -19 0 -23 -4 -17 -17 15 -35 17
-73 5 -88 -7 -8 -10 -22 -6 -30 3 -8 1 -15 -5 -15 -6 0 -8 -16 -3 -45 l6 -45
-41 0 -42 0 7 -59 c7 -67 -7 -94 -44 -84 -17 4 -23 -1 -28 -22 -4 -17 -11 -24
-20 -21 -9 3 -14 -2 -14 -14 0 -11 -4 -20 -10 -20 -5 0 -10 -16 -10 -36 0 -28
-3 -35 -15 -30 -19 7 -21 -40 -3 -79 17 -37 3 -41 -33 -11 -35 29 -52 29 -57
0 -7 -43 -12 -48 -27 -28 -14 18 -14 18 -15 -8 0 -16 -4 -28 -10 -28 -5 0 -10
-11 -10 -25 0 -17 -6 -25 -16 -25 -27 0 -43 -32 -44 -84 0 -42 -2 -47 -15 -36
-13 11 -15 8 -15 -16 0 -27 -2 -29 -42 -29 -35 0 -42 -3 -40 -17 1 -9 -7 -23
-18 -31 -12 -8 -24 -30 -27 -48 -2 -19 -9 -38 -14 -44 -5 -5 -9 -13 -9 -17 0
-4 612 -8 1360 -8 l1360 0 0 2560 0 2560 -2560 0 -2560 0 0 -1793z m4290 1183
c0 -5 -4 -10 -10 -10 -5 0 -10 5 -10 10 0 6 5 10 10 10 6 0 10 -4 10 -10z
m-66 -125 c-4 -8 -8 -15 -10 -15 -2 0 -4 7 -4 15 0 8 4 15 10 15 5 0 7 -7 4
-15z m-46 -93 c-13 -20 -29 -50 -36 -66 -7 -16 -15 -26 -19 -23 -3 3 5 25 17
49 13 24 30 56 38 73 9 16 17 24 20 17 2 -7 -7 -30 -20 -50z m-158 -352 c0 -5
-4 -10 -10 -10 -5 0 -10 5 -10 10 0 6 5 10 10 10 6 0 10 -4 10 -10z m415 -79
c-6 -5 -21 -12 -35 -16 -24 -7 -24 -7 -5 9 21 16 56 23 40 7z m-367 -42 c-2
-6 -29 -22 -61 -34 -45 -19 -55 -20 -49 -8 9 15 76 51 100 52 8 1 12 -4 10
-10z m197 -39 c-16 -11 -37 -20 -45 -20 -23 1 31 40 55 40 17 0 15 -4 -10 -20z
m-70 -40 c-3 -5 -11 -10 -16 -10 -6 0 -7 5 -4 10 3 6 11 10 16 10 6 0 7 -4 4
-10z m-51 -35 c-7 -16 -24 -21 -24 -6 0 8 7 13 27 20 1 1 0 -6 -3 -14z m-56
-55 c-7 -10 -14 -18 -15 -16 -6 6 9 36 18 36 5 0 4 -9 -3 -20z m362 -519 c0
-6 -4 -13 -10 -16 -5 -3 -10 1 -10 9 0 9 5 16 10 16 6 0 10 -4 10 -9z m-244
-757 c-4 -9 -9 -15 -11 -12 -3 3 -3 13 1 22 4 9 9 15 11 12 3 -3 3 -13 -1 -22z"/>
<path d="M3817 4100 c-19 -52 -22 -77 -7 -82 8 -2 7 -14 -2 -34 -7 -17 -18
-29 -24 -27 -7 2 -13 -11 -16 -31 -2 -19 0 -32 4 -30 4 3 8 -4 8 -16 0 -11 7
-23 15 -26 8 -4 15 -17 15 -30 0 -17 6 -24 19 -24 15 0 21 10 26 40 8 48 -1
68 -21 43 -18 -25 -17 -3 3 43 16 39 17 81 5 171 l-7 48 -18 -45z"/>
<path d="M3736 3955 c-3 -8 -1 -15 4 -15 6 0 10 7 10 15 0 8 -2 15 -4 15 -2 0
-6 -7 -10 -15z"/>
<path d="M2143 3693 c-7 -2 -13 -10 -13 -15 0 -6 -25 -37 -55 -69 -40 -42 -55
-65 -55 -86 0 -15 -7 -41 -15 -57 -8 -15 -15 -30 -15 -32 0 -2 26 -4 59 -4 32
0 72 -5 90 -11 55 -19 46 -1 -13 28 -80 39 -75 57 9 28 l40 -14 -31 27 c-50
44 -50 72 0 63 69 -14 71 -14 59 0 -18 18 -16 32 3 25 15 -6 15 -4 3 11 -8 10
-21 23 -29 30 -13 11 -13 12 3 13 10 0 32 -7 50 -16 27 -13 24 -7 -22 35 -29
28 -54 51 -55 50 0 0 -7 -3 -13 -6z"/>
<path d="M3932 3621 c2 -19 -4 -29 -27 -40 -16 -9 -31 -16 -32 -17 -1 0 7 -19
18 -42 14 -27 28 -42 40 -42 17 0 19 7 18 69 -1 38 -6 75 -11 82 -6 10 -8 7
-6 -10z m5 -63 c-3 -8 -6 -5 -6 6 -1 11 2 17 5 13 3 -3 4 -12 1 -19z"/>
<path d="M1885 3529 c-5 -22 -3 -34 6 -40 11 -7 10 -11 -6 -23 -18 -13 -18
-17 -6 -40 29 -53 48 -20 34 55 -6 28 -6 52 -1 55 4 3 6 10 3 15 -11 18 -23 9
-30 -22z"/>
<path d="M4475 3515 c-54 -17 -145 -65 -145 -76 0 -5 2 -9 4 -9 5 0 180 90
185 96 5 5 5 5 -44 -11z"/>
<path d="M2910 3499 c-19 -12 -38 -27 -43 -35 -4 -7 -14 -20 -23 -28 -11 -12
-12 -20 -4 -36 6 -11 15 -20 20 -20 6 0 10 -15 10 -32 1 -59 70 -118 138 -118
81 0 169 78 156 138 -5 27 -5 27 24 -7 l30 -33 13 23 c9 17 9 24 0 27 -16 5
-13 32 4 32 8 0 15 -4 15 -10 0 -5 6 -10 14 -10 9 0 12 8 8 25 -2 14 -8 25
-12 25 -4 0 -15 18 -25 39 -11 26 -22 38 -31 34 -8 -3 -14 -9 -14 -14 0 -4 7
-6 15 -3 8 4 15 1 15 -5 0 -13 -76 -5 -138 15 -63 21 -131 18 -172 -7z m152
-36 c18 -16 43 -81 35 -90 -7 -6 -78 -25 -97 -25 -77 1 -85 5 -97 52 -6 25
-12 37 -12 28 -1 -10 -5 -18 -11 -18 -17 0 -11 26 10 45 14 13 20 14 20 5 0
-10 4 -9 18 2 33 30 100 31 134 1z"/>
<path d="M2990 3386 c0 -9 7 -12 20 -9 11 3 20 9 20 14 0 5 -9 9 -20 9 -11 0
-20 -6 -20 -14z"/>
<path d="M1980 3400 c0 -12 8 -21 23 -24 27 -6 107 -13 107 -9 0 6 -101 53
-115 53 -8 0 -15 -9 -15 -20z"/>
<path d="M4224 3374 c-54 -42 -75 -64 -60 -64 4 0 33 19 65 43 33 23 68 47 78
54 17 11 17 12 -3 12 -11 1 -47 -20 -80 -45z"/>
<path d="M4350 3260 c19 -4 78 -10 130 -13 89 -5 93 -5 55 8 -22 7 -80 13
-130 13 -67 0 -81 -2 -55 -8z"/>
<path d="M4588 3233 c6 -2 18 -2 25 0 6 3 1 5 -13 5 -14 0 -19 -2 -12 -5z"/>
<path d="M4300 3207 l-45 -11 40 -4 c48 -4 105 6 105 18 0 13 -42 11 -100 -3z"/>
<path d="M4425 3213 c6 -6 73 -18 150 -27 77 -9 154 -19 170 -21 17 -2 -13 7
-65 21 -101 26 -273 44 -255 27z"/>
<path d="M4200 3175 c-33 -19 -21 -19 21 0 19 8 27 14 19 14 -8 0 -26 -6 -40
-14z"/>
<path d="M4170 3101 c0 -9 24 -21 42 -21 6 0 6 6 -2 15 -14 16 -40 20 -40 6z"/>
<path d="M3650 3066 c0 -7 7 -19 15 -26 8 -7 15 -19 15 -28 0 -45 105 -162
147 -162 12 0 48 16 79 36 42 27 58 33 64 24 11 -18 57 32 82 87 10 23 26 47
36 52 12 7 14 13 6 21 -12 12 -100 -5 -110 -21 -3 -5 -16 -6 -29 -3 -12 3 -26
1 -29 -5 -4 -6 -27 -11 -51 -11 -36 0 -43 -3 -39 -15 5 -13 2 -14 -20 -5 -17
6 -35 6 -52 0 -19 -7 -31 -7 -40 1 -17 14 -18 30 -1 24 19 -7 38 10 31 28 -7
19 -25 22 -40 7 -7 -7 -19 -8 -37 -1 -21 8 -27 7 -27 -3z m234 -172 c5 -13 2
-15 -16 -10 -13 3 -30 6 -38 6 -13 0 -13 1 0 10 23 15 47 12 54 -6z"/>
<path d="M3220 3049 c0 -5 -5 -7 -12 -3 -8 5 -9 2 -5 -9 4 -10 1 -17 -5 -17
-6 0 -9 -3 -5 -6 11 -11 67 8 77 27 10 17 7 19 -20 19 -16 0 -30 -5 -30 -11z"/>
<path d="M4270 3042 c0 -5 17 -14 38 -21 20 -7 44 -15 52 -17 25 -8 -17 16
-55 32 -19 8 -35 10 -35 6z"/>
<path d="M4160 3007 c0 -18 49 -32 63 -18 14 14 9 17 -30 26 -26 5 -33 3 -33
-8z"/>
<path d="M4246 2983 c-5 -11 -1 -22 10 -30 29 -21 36 -15 19 17 -18 35 -21 36
-29 13z"/>
<path d="M4300 2993 c0 -4 5 -15 10 -23 7 -11 12 -12 21 -3 8 8 6 14 -10 22
-12 7 -21 8 -21 4z"/>
<path d="M3120 2969 c0 -4 -14 -10 -30 -14 -17 -4 -28 -10 -25 -15 3 -5 -3
-13 -12 -19 -24 -14 -20 -14 67 5 85 17 90 20 61 29 -12 3 -21 10 -21 15 0 5
-9 8 -20 7 -11 -1 -20 -4 -20 -8z"/>
<path d="M4140 2961 c0 -5 12 -19 27 -31 20 -16 28 -18 35 -8 13 21 10 25 -23
37 -39 13 -39 13 -39 2z"/>
<path d="M2915 2920 c-16 -7 -17 -9 -3 -9 9 -1 20 4 23 9 7 11 7 11 -20 0z"/>
<path d="M4214 2916 c-4 -12 58 -126 68 -126 2 0 4 23 6 51 2 38 -1 56 -14 70
-20 22 -52 25 -60 5z"/>
<path d="M2810 2913 c8 -3 18 -10 21 -16 4 -5 15 -7 25 -2 18 7 18 8 -1 15
-11 5 -29 9 -40 9 -14 -1 -16 -2 -5 -6z"/>
<path d="M4112 2840 c7 -11 16 -20 21 -20 4 0 3 9 -3 20 -6 11 -15 20 -20 20
-6 0 -5 -9 2 -20z"/>
<path d="M3517 2843 c-13 -12 -7 -23 11 -22 10 0 12 3 4 6 -6 2 -10 9 -6 14 6
10 0 12 -9 2z"/>
<path d="M4080 2819 c0 -17 27 -45 35 -37 3 3 -3 16 -14 29 -16 19 -20 20 -21
8z"/>
<path d="M4180 2825 c0 -2 11 -20 24 -40 14 -20 27 -41 29 -48 2 -7 8 -9 12
-4 5 4 0 20 -11 35 -11 15 -23 35 -27 45 -6 15 -27 25 -27 12z"/>
<path d="M4050 2795 c0 -6 6 -17 12 -23 10 -10 10 -14 0 -21 -10 -6 -10 -14
-2 -35 10 -26 36 -32 34 -8 -1 7 -2 20 -3 30 -2 19 -40 73 -41 57z"/>
<path d="M4161 2778 c2 -52 26 -162 36 -165 7 -3 14 17 18 50 7 55 -3 84 -42
125 -11 11 -13 9 -12 -10z"/>
<path d="M3971 2718 c0 -7 4 -22 9 -33 8 -18 9 -17 9 7 1 15 -3 30 -9 33 -5 3
-10 0 -9 -7z"/>
<path d="M4140 2720 c0 -5 5 -10 11 -10 5 0 7 5 4 10 -3 6 -8 10 -11 10 -2 0
-4 -4 -4 -10z"/>
<path d="M3920 2689 c0 -25 55 -149 65 -146 5 2 15 23 22 46 13 45 3 73 -24
64 -6 -2 -13 6 -15 19 -3 25 -48 40 -48 17z"/>
<path d="M4040 2663 c0 -10 -3 -29 -6 -43 l-6 -25 21 25 c24 29 27 60 6 60 -8
0 -15 -8 -15 -17z"/>
<path d="M4251 2664 c0 -11 3 -14 6 -6 3 7 2 16 -1 19 -3 4 -6 -2 -5 -13z"/>
<path d="M2590 2635 c-24 -14 -24 -15 -2 -12 12 2 28 9 34 15 16 16 -2 14 -32
-3z"/>
<path d="M3891 2624 c0 -11 3 -14 6 -6 3 7 2 16 -1 19 -3 4 -6 -2 -5 -13z"/>
<path d="M1810 2555 c-16 -9 -19 -14 -9 -15 8 0 24 7 35 15 24 18 7 19 -26 0z"/>
<path d="M3931 2527 c-1 -30 3 -46 9 -42 12 7 12 42 0 70 -6 15 -9 8 -9 -28z"/>
<path d="M1910 2530 c-8 -5 -31 -16 -50 -24 -31 -13 -32 -14 -10 -15 23 -1 90
32 90 44 0 7 -13 5 -30 -5z"/>
<path d="M1933 2458 c-13 -6 -23 -15 -23 -20 0 -5 14 -2 30 7 45 23 38 35 -7
13z"/>
<path d="M1850 2375 c-16 -9 -19 -14 -9 -15 8 0 24 7 35 15 24 18 7 19 -26 0z"/>
<path d="M1836 2101 c-10 -11 -16 -25 -14 -32 2 -7 14 1 27 19 24 35 15 44
-13 13z"/>
<path d="M1775 1972 c-16 -9 -32 -18 -34 -19 -2 -2 -2 -6 2 -9 7 -7 67 27 67
38 0 10 0 10 -35 -10z"/>
<path d="M1830 1945 c-14 -16 -10 -18 14 -9 9 3 16 10 16 15 0 14 -16 11 -30
-6z"/>
<path d="M1746 1885 c-31 -24 -11 -28 25 -6 26 16 29 21 14 21 -11 -1 -29 -7
-39 -15z"/>
<path d="M1693 1780 c-13 -5 -23 -17 -23 -25 0 -14 3 -14 30 2 45 26 40 42 -7
23z"/>
<path d="M1753 1733 c4 -3 1 -13 -6 -21 -10 -13 -9 -14 3 -10 19 6 26 38 9 38
-7 0 -9 -3 -6 -7z"/>
<path d="M1736 1665 c-3 -8 -1 -15 4 -15 13 0 22 18 11 24 -5 3 -11 -1 -15 -9z"/>
<path d="M1753 1380 c-13 -5 -23 -17 -23 -27 0 -15 1 -15 13 -1 6 8 21 20 32
26 24 14 9 14 -22 2z"/>
<path d="M1858 1343 c7 -3 16 -2 19 1 4 3 -2 6 -13 5 -11 0 -14 -3 -6 -6z"/>
<path d="M1945 1339 c-11 -17 1 -21 15 -4 8 9 8 15 2 15 -6 0 -14 -5 -17 -11z"/>
<path d="M1825 1197 c-10 -7 -25 -18 -33 -24 -7 -7 -20 -13 -27 -13 -8 0 -24
-15 -37 -32 l-23 -33 25 18 c14 10 52 35 84 57 33 22 53 40 45 39 -8 0 -23 -6
-34 -12z"/>
<path d="M1655 1173 c-11 -3 -24 -9 -29 -14 -17 -15 29 -10 50 6 19 15 15 16
-21 8z"/>
<path d="M1647 1059 c-37 -31 -49 -59 -23 -59 12 0 86 73 86 85 0 14 -29 2
-63 -26z"/>
<path d="M968 913 c7 -3 16 -2 19 1 4 3 -2 6 -13 5 -11 0 -14 -3 -6 -6z"/>
<path d="M1907 682 c-10 -11 -13 -23 -8 -31 7 -11 13 -6 25 18 18 34 9 41 -17
13z"/>
<path d="M1577 552 c-10 -10 -17 -23 -17 -29 0 -6 -12 -21 -27 -33 l-28 -21
33 16 c17 8 32 21 32 27 0 6 7 20 17 30 9 10 14 20 11 23 -3 3 -12 -3 -21 -13z"/>
<path d="M1239 283 c-13 -16 -12 -17 4 -4 16 13 21 21 13 21 -2 0 -10 -8 -17
-17z"/>
<path d="M1289 187 c-39 -38 -89 -96 -89 -104 0 -10 -75 -40 -121 -47 -21 -4
-42 -13 -49 -21 -11 -13 -6 -15 29 -15 45 0 104 21 133 47 10 9 21 13 25 10 4
-4 -2 -13 -12 -21 -17 -12 -17 -13 6 -19 13 -4 28 -1 34 5 7 8 4 9 -10 4 -15
-4 -12 1 10 20 25 21 26 25 8 19 -35 -10 -37 13 -4 41 17 14 29 30 25 35 -3 5
7 20 23 33 15 13 25 27 22 30 -3 4 -17 -4 -30 -17z"/>
<path d="M1326 154 c-11 -7 -18 -16 -15 -18 2 -2 13 2 23 10 11 7 18 16 15 18
-2 2 -13 -2 -23 -10z"/>
<path d="M1332 107 c-34 -35 -34 -57 0 -29 72 59 74 61 52 62 -11 0 -35 -15
-52 -33z"/>
<path d="M1452 49 c-15 -18 -33 -29 -50 -30 -15 0 -36 -4 -47 -9 -15 -6 -6 -9
32 -9 44 -1 55 3 71 24 11 14 24 25 29 24 20 -3 23 2 9 16 -18 19 -17 19 -44
-16z"/>
</g>
</svg>
